<svg xmlns="http://www.w3.org/2000/svg" viewBox="0 0 96 96">
<defs><linearGradient id="g" x1="0" y1="0" x2="1" y2="1"><stop stop-color="#70e0ff"/><stop offset="1" stop-color="#7b5cff"/></linearGradient></defs>
<circle cx="48" cy="48" r="45" fill="#11182b" stroke="#7de7ff" stroke-width="3"/>
<path d="M29 58c-11-6-14-20-7-30 6 5 12 8 18 8-3-9 1-18 8-23 7 6 10 14 8 23 7 0 13-3 19-8 7 10 4 24-7 30 2 12-5 23-20 23S27 70 29 58z" fill="url(#g)"/>
<path d="M35 44c4-8 10-12 13-12s9 4 13 12c-5-2-9-2-13 0-4-2-8-2-13 0z" fill="#fff" opacity=".95"/>
<circle cx="40" cy="47" r="3.5" fill="#10162a"/><circle cx="56" cy="47" r="3.5" fill="#10162a"/>
<path d="M39 60c5 4 13 4 18 0" fill="none" stroke="#fff" stroke-width="3" stroke-linecap="round"/>
<path d="M24 31 10 18l17 4M72 31l14-13-17 4" fill="none" stroke="#7de7ff" stroke-width="5" stroke-linecap="round" stroke-linejoin="round"/>
</svg>